<?xml version="1.0" encoding="iso-8859-1"?>
<!-- Generator: Adobe Illustrator 19.0.0, SVG Export Plug-In . SVG Version: 6.00 Build 0)  -->
<svg version="1.1" id="Capa_1" xmlns="http://www.w3.org/2000/svg" xmlns:xlink="http://www.w3.org/1999/xlink" x="0px" y="0px"
	 viewBox="0 0 512.001 512.001" style="enable-background:new 0 0 512.001 512.001;" xml:space="preserve">
<path style="fill:#EFEFF0;" d="M459.966,182.332c10.394-32.761,7.666-68.286-7.914-100.929
	c-16.539-34.654-45.351-61.543-81.129-75.715L356.564,0l-30.018,82.832C303.703,75.794,280.039,72.233,256,72.233
	c-24.039,0-47.703,3.56-70.546,10.599L155.437,0l-14.36,5.688c-35.778,14.172-64.59,41.061-81.129,75.715
	c-15.579,32.642-18.308,68.168-7.914,100.929C20.893,227.73,4.479,281.258,4.479,337.669v8.163L256,508.461l251.522-162.629v-8.163
	C507.522,281.258,491.108,227.73,459.966,182.332z"/>
<g>
	<path style="fill:#DFDEE0;" d="M256,508.46L507.522,345.83v-8.163c0-56.411-16.414-109.939-47.557-155.337
		c10.394-32.761,7.666-68.286-7.914-100.929c-16.539-34.654-45.351-61.543-81.129-75.715L356.564,0l-30.018,82.832
		C303.703,75.794,280.039,72.233,256,72.233"/>
	<path style="fill:#DFDEE0;" d="M262.383,306.674L256,303.673l-6.383,3.001c-3.648,1.717-89.362,42.799-89.362,109.582
		c0,52.794,42.95,95.745,95.745,95.745s95.745-42.95,95.745-95.745C351.746,349.474,266.033,308.39,262.383,306.674z"/>
</g>
<path style="fill:#CECED1;" d="M256,512c52.795,0,95.745-42.95,95.745-95.745c0-66.782-85.714-107.865-89.362-109.582L256,303.672"
	/>
<rect x="151.354" y="279.581" style="fill:#279ACF;" width="29.995" height="29.995"/>
<rect x="330.652" y="279.581" style="fill:#816244;" width="29.995" height="29.995"/>
<polygon style="fill:#132F3B;" points="256,455.583 215.688,428.707 232.325,403.749 256,419.533 279.676,403.749 296.313,428.707 
	"/>
<polygon points="256,455.583 256,419.533 279.676,403.749 296.313,428.707 "/>
<path style="fill:#132F3B;" d="M176.776,179.269c24.799,0,47.386,9.634,64.227,25.351v-53.013h29.995v53.013
	c16.842-15.716,39.429-25.351,64.227-25.351c46.852,0,85.826,34.371,93.029,79.224h67.946
	c-7.995-27.074-20.142-52.705-36.234-76.163c10.394-32.761,7.666-68.286-7.914-100.929c-16.539-34.654-45.351-61.543-81.129-75.715
	L356.564,0l-30.018,82.832C303.703,75.794,280.039,72.233,256,72.233c-24.039,0-47.703,3.56-70.546,10.599L155.437,0l-14.36,5.688
	c-35.778,14.172-64.59,41.061-81.129,75.715c-15.579,32.642-18.308,68.168-7.914,100.929c-16.09,23.457-28.238,49.088-36.233,76.163
	h67.946C90.951,213.641,129.925,179.269,176.776,179.269z"/>
<path d="M459.966,182.332c10.394-32.761,7.666-68.286-7.914-100.929c-16.539-34.654-45.351-61.543-81.129-75.715L356.564,0
	l-30.018,82.832C303.703,75.794,280.039,72.233,256,72.233v79.375h14.997v53.013c16.842-15.716,39.429-25.351,64.227-25.351
	c46.852,0,85.826,34.371,93.029,79.224h67.946C488.205,231.42,476.057,205.789,459.966,182.332z"/>
<g>
</g>
<g>
</g>
<g>
</g>
<g>
</g>
<g>
</g>
<g>
</g>
<g>
</g>
<g>
</g>
<g>
</g>
<g>
</g>
<g>
</g>
<g>
</g>
<g>
</g>
<g>
</g>
<g>
</g>
</svg>
